<svg xmlns="http://www.w3.org/2000/svg" viewBox="0 0 1107.51 987.04"><defs><style>.cls-1{fill:#283689;}.cls-2{fill:#fff;}.cls-3{fill:#50bfa5;}.cls-4{fill:#3c8f7c;}.cls-5{fill:#355389;}.cls-6{fill:#466eb6;}.cls-7{fill:#f7cc7f;}.cls-8{fill:#1a1844;}.cls-9{fill:#fe7b78;}.cls-10{fill:#c0ccca;}.cls-11{fill:#fae0b2;}.cls-12{fill:#86b1f2;}.cls-13{fill:#b75742;}.cls-14{fill:#fe4943;}.cls-15{fill:#184655;}.cls-16{fill:#13375b;}.cls-17{fill:#ffa18d;}.cls-18{fill:#0c2d47;}.cls-19{fill:#f47458;}.cls-20{fill:#f7a491;}.cls-21{fill:#d2dad9;}.cls-22{fill:#97b7ff;}.cls-23{fill:#ffab37;}</style></defs><g id="Layer_2" data-name="Layer 2"><g id="step_3" data-name="step 3"><polygon class="cls-1" points="352.79 188.22 342.18 191.48 335.05 174.97 318.94 177.82 311.58 166.34 305.77 170.07 315.61 185.42 330.88 182.72 338.29 199.89 354.27 194.99 352.79 188.22"/><polygon class="cls-2" points="1033.67 781.84 1023.06 785.1 1015.93 768.59 999.81 771.44 992.46 759.96 986.65 763.69 996.49 779.04 1011.75 776.34 1019.17 793.51 1035.15 788.6 1033.67 781.84"/><path class="cls-3" d="M287.37,977.24s-56.65-192-61.2-234.39,27.14-29.23,27.14-29.23-26.65-80.72-7.38-99.87,36.66,16.55,36.66,16.55,5.83-98,26.38-98c38.27-.07,37.51,106.86,37.51,106.86s9.77-41.86,30.26-30.39C407.65,626.06,363.33,710,363.33,710s39.38,0,53.21,19.89C441.36,765.46,287.37,977.24,287.37,977.24Z"/><path class="cls-3" d="M305.9,951.82S142.57,924.51,107,895.57s-.36-42-.36-42-82.05-42.06-81.1-70.66,41.71-14.06,41.71-14.06S-1.84,690,14.52,675.06C45,647.17,124.93,729.12,124.93,729.12s-23.73-39,1.26-45.14c37.7-9.3,65.51,86.79,65.51,86.79s-7.06-37.95,18.93-32.89C257.26,747,305.9,951.82,305.9,951.82Z"/><path class="cls-4" d="M210.63,737.88c-26.06-4.71-18.93,32.89-18.93,32.89S163.89,674.68,126.19,684c-25,6.17-1.26,45.14-1.26,45.14S45,647.17,14.52,675.06L305.35,951.87C300.17,925.43,254.31,745.78,210.63,737.88Z"/><path class="cls-5" d="M352.36,974.35s-86-87.47-129.33-96.58-35.52,21.71-35.52,21.71-85.94-75.16-105.86-57,1.63,35.79,1.63,35.79S11.7,865.64,1.45,889.13c-15.75,36.1,102,55.74,102,55.74s-49.33,3.42-37.89,26C82.79,1005.06,352.36,974.35,352.36,974.35Z"/><path class="cls-6" d="M1.45,889.13c10.25-23.49,81.83-10.81,81.83-10.81s-21.54-17.58-1.63-35.79,103.19,46.73,103.19,46.73-19.64-37.53,23.68-28.42S352.36,974.35,352.36,974.35Z"/><path class="cls-7" d="M517.17,138.9c-.13-5.84.76-9.89,4.05-14.41,17.35-23.81-3-57-31.92-52.29S451.75,115,475.82,132a22.13,22.13,0,0,1,8.59,12.78"/><path class="cls-8" d="M492.26,149.46c-1.89-15.64-4.53-32.14-5.44-36.83-16.59.92-10.28-16.57-2.62-9.46,2.18,2,3.21,4.78,3.89,7.79a42.91,42.91,0,0,0,15.81-4.61c-.26-3.85-.64-6.78.43-9.24,1.63-3.73,6.35-4.75,8.27-1.11a5.81,5.81,0,0,1,.33,4.55c-1.11,3.08-4.47,5.12-7.38,6.71.87,12.43,2.08,25,3.6,37.29l-1.57.2c-1.49-12.14-2.69-24.46-3.56-36.69a44.5,44.5,0,0,1-15.61,4.45c1.13,6,3.64,22.08,5.41,36.76ZM478.94,109c1.48,1.59,3.95,2.29,7.55,2.12-.62-2.66-1.54-5-3.37-6.74C479,100.5,476.47,106.28,478.94,109Zm26.84-11.21c-.91,2.07-.56,4.73-.35,7.78,2.37-1.35,5.12-3,6-5.51.63-1.73-.08-4.18-1.84-4.63C509.41,95.33,506.41,96.28,505.78,97.74Z"/><path class="cls-1" d="M484.28,144.31l.13.43,4.38,17.68a9.62,9.62,0,0,0,10.91,7.18l11-1.8a9.62,9.62,0,0,0,8-10.3c-.67-8.12-1.42-13.93-1.52-18.6Z"/><path class="cls-2" d="M467.84,59l-8.66-15.8a3.16,3.16,0,1,1,5.54-3L473.38,56a3.16,3.16,0,1,1-5.54,3Z"/><path class="cls-2" d="M448.92,97.23,430,95.58a3.16,3.16,0,1,1,.55-6.29l18.88,1.65a3.16,3.16,0,0,1-.55,6.29Z"/><path class="cls-2" d="M430.2,155.09a3.17,3.17,0,0,1,0-4.47,104.05,104.05,0,0,1,15.16-12.37,3.16,3.16,0,0,1,3.51,5.26,96.07,96.07,0,0,0-14.23,11.61A3.16,3.16,0,0,1,430.2,155.09Z"/><path class="cls-2" d="M514.47,58.15a3.16,3.16,0,0,1-2.24-3.87,119.68,119.68,0,0,0,3.89-24.52,3.16,3.16,0,0,1,6.31.34,126.57,126.57,0,0,1-4.1,25.81A3.15,3.15,0,0,1,514.47,58.15Z"/><path class="cls-2" d="M533.9,82.41A3.17,3.17,0,0,1,536,78.47l19.62-5.91a3.16,3.16,0,0,1,1.83,6l-19.62,5.91A3.17,3.17,0,0,1,533.9,82.41Z"/><path class="cls-2" d="M566.13,134.61a3.22,3.22,0,0,1-.86-.11,100.14,100.14,0,0,1-19.64-7.88,3.16,3.16,0,0,1,3-5.58A92.52,92.52,0,0,0,567,128.42a3.15,3.15,0,0,1-.85,6.19Z"/><path class="cls-7" d="M861.72,286l-9.9-23.41-24.89-5.11a3.49,3.49,0,0,1-1.59-6.06l19.2-16.65-2.82-25.26a3.49,3.49,0,0,1,5.27-3.38l21.76,13.12,23.15-10.49a3.49,3.49,0,0,1,4.84,4L891,237.43l17.14,18.77a3.5,3.5,0,0,1-2.28,5.84l-25.32,2.18L868,286.31A3.49,3.49,0,0,1,861.72,286Z"/><polygon class="cls-9" points="1020.46 179.81 1016.39 196.19 989.3 192.56 980.4 215.78 959.68 216.38 959.99 226.87 987.69 226.07 996.13 204.06 1024.31 207.84 1030.43 183.19 1020.46 179.81"/><path class="cls-10" d="M769.73,979.39H293.56c-18.19,0-32.93-15.29-32.93-34.16V924.92c0-18.86,14.74-34.15,32.93-34.15H769.73a67.47,67.47,0,0,0-.88,87.59Z"/><path class="cls-11" d="M762.37,900.92H498.27c-18.19,0-32.93,15.29-32.93,34.16h0c0,18.86,14.74,34.15,32.93,34.15H762.4A67.77,67.77,0,0,1,762.37,900.92Z"/><path class="cls-12" d="M602.44,829.22a2,2,0,0,0-2-2.8h-252c-19.75,0-35.76,14.4-35.76,32.18h0c0,17.77,16,32.18,35.76,32.18h252a2,2,0,0,0,2-2.82h0A61.66,61.66,0,0,1,602.44,829.22Z"/><path class="cls-11" d="M600.85,832.4H476c-23.18,0-42,12.08-42,27s18.79,27,42,27H601.67A61.59,61.59,0,0,1,600.85,832.4Z"/><path class="cls-13" d="M568.6,845.19H552.34c-3.5,0-6.33,1.17-6.33,2.62v.24H568.6Z"/><path class="cls-14" d="M582.48,851.77c0-3.64-4.25-6.58-9.49-6.58H552.12c4,0,7.19,2.23,7.19,5l-.09,70.5,11.53-9.06,11.75,9.06Z"/><path class="cls-11" d="M556.12,824.09H409.52c-13,0-23.54-12.5-23.54-27.93h0c0-15.43,10.54-27.94,23.54-27.94h146.6c-11.21,15.49-11.65,38.21-1,54.29Z"/><path class="cls-10" d="M386,796.16h0c0-15.43,10.79-27.94,24.1-27.94H558.91a1.36,1.36,0,0,0,1.25-1.46h0a1.36,1.36,0,0,0-1.25-1.44H322.82c-14.69,0-26.59,13.81-26.59,30.84h0c0,17,11.9,30.83,26.59,30.83H558.91a1.36,1.36,0,0,0,1.25-1.44h0a1.36,1.36,0,0,0-1.25-1.46H410.09C396.78,824.09,386,811.59,386,796.16Z"/><path class="cls-15" d="M530.52,782H514.26c-3.5,0-6.34,1.15-6.34,2.57v.23h22.6Z"/><path class="cls-4" d="M544.39,788.4c0-3.57-4.25-6.45-9.48-6.45H514c4,0,7.2,2.19,7.2,4.89l-.1,69.14,11.53-8.89L544.42,856Z"/><path class="cls-16" d="M789.7,354.84l21.64-5.7L796.67,544.79l-26,.87L783.81,362A7.93,7.93,0,0,1,789.7,354.84Z"/><path class="cls-7" d="M798.61,550.37a7.34,7.34,0,0,1-1.48,0c-4.3-.51-7.48-4.78-7.1-9.55l14.4-184c.37-4.76,4.16-8.22,8.46-7.71s7.48,4.79,7.11,9.55l-14.41,184C805.26,546.85,802.27,550,798.61,550.37Z"/><path class="cls-7" d="M599.43,560.17c0,.13,0,.27,0,.4h0c.67,7.49,6.47,13.09,12.95,12.51l182.77-16.36c6.48-.58,11.18-7.12,10.5-14.6,0-.32-.07-.63-.12-.94Z"/><path class="cls-17" d="M726.7,757.77c-12,6.64-48.55-5-48.55-6-.52,10-41,107.86-41,107.86l0,30.11s83.33,4,82.13-3.39-5.68-2.58-22.3-16.48c-1.48-1.24-24.82-6.66-18.5-20.47C691.27,821.53,718.28,775.14,726.7,757.77Z"/><path class="cls-18" d="M634.48,890.76l91.21,0c3.29-.34,4.06-3,2.9-4.64-2.39-3.35-19.87-11.26-31.62-16.5-20.47,2.39-56.45-5.48-59.74-10.15C628.56,871.1,632.64,890.38,634.48,890.76Z"/><path class="cls-18" d="M614.47,687.51c-1.23-3.7,78.53-37.55,82.1-33.68,6.32,6.84-43.15,135.26-43.15,135.26l56.84,17.37S769.35,658.09,766.88,631s-32.07-58-96.21-38.24S614.47,687.51,614.47,687.51Z"/><path class="cls-17" d="M779.62,774.65c-13.46-2.45-30.91-3.15-44.88-3.39,1.64,12.44,9.64,76.23,8.18,80.15a47.9,47.9,0,0,1-19.06,23.31s61.94,55.88,65.68,49.43-2.76-5.59-6.81-26.89c-.36-1.89-9.31-31.61-9.87-47.64C771.8,819.05,779.16,791.63,779.62,774.65Z"/><path class="cls-16" d="M759.75,566c-8.64-4.61-31.07-4.77-55.74-3.17a566.18,566.18,0,0,0-141.29,27.73L532.1,600.67l.1-31.38S434.83,553,431.44,577.13c-5.1,36.35,1.23,110.13,33.67,126.6,100.78,51.15,242-81.5,242.52-64.14.68,23.31,20.33,110,25.36,148,14,.25,38,.24,48.38-2.15C783.4,711.06,784.35,579.1,759.75,566Z"/><path class="cls-16" d="M722,876l69.63,55.62c2.76,1.83,5,.25,5.18-1.75.27-4.11-8.24-21.31-14-32.81C765.43,886,742.55,857,743,851.25,735.62,857.45,720.79,874.57,722,876Z"/><path class="cls-16" d="M564.38,262.62c-2.34-21.38-4.8-42.84-22.53-58.51-14.34-12.68-32.58-14.83-50.61-8-51.09,19.22-24.76,64.59-89.91,110.34-20.24,14.22-42.55,23.94-57.79,43.09-21.33,26.79-13.28,59,6.16,80.53C442.73,533,546.58,394,554,360.57,559.59,335.74,565.88,276.38,564.38,262.62Z"/><path class="cls-10" d="M545.49,382.85a284,284,0,0,0-15.43-25.13c-7.88-14-28.25-21.1-28.25-21.1s-6.81.14-14.63.52a6.21,6.21,0,0,1-1.47,2.6c-2.94,2.21-19.79-.64-30.67,6.75-36.47,31.26-26.38,182.78-23.51,230.64l111.06,1s-14-103,8.57-129.43C566.87,430.33,556.76,403.63,545.49,382.85Z"/><path class="cls-17" d="M495.42,285.36s-6.1,43.6-10.37,54.2,23.45,33.25,46.51,40.13-7-23.4-6.09-34.73,5.14-65,5.14-65Z"/><path class="cls-19" d="M529.45,295.38c.67-8.87,1.16-15.38,1.16-15.38l-35.19,5.36s-.88,5.12-1.86,12.37C507.82,306,520.65,303.39,529.45,295.38Z"/><path class="cls-17" d="M506.46,205.72A40,40,0,0,0,484,221.92c-8.56,13.06-14.44,51.54,13.77,69.5s50.14-7.45,50.51-32.23S543.35,201.35,506.46,205.72Z"/><path class="cls-20" d="M554.75,251.44c-2.41,6-7.18,9.69-10.66,8.29s-4.36-7.39-2-13.37,7.18-9.68,10.66-8.28S557.16,245.46,554.75,251.44Z"/><path class="cls-16" d="M510.62,204.91s-17.68,39.66-33.22,43.2-15.31,23.5-15.31,23.5S462.44,225.53,477,215,510.62,204.91,510.62,204.91Z"/><path class="cls-20" d="M483.57,256.36c2.05,6.44.18,12.78-4.18,14.16s-9.54-2.72-11.58-9.16-.17-12.78,4.18-14.16S481.53,249.91,483.57,256.36Z"/><path class="cls-17" d="M682.24,542.69c-6.67-2.41-16.59-2.71-16.42-3.59.67-3.56,30.11,7.86,26.13,2.66-2.21-2.89-24.25-13.14-29.6-11.44S623,541.53,623,541.53l-93.25-21.85S506.25,466.19,504,420.24c-19.46,2.63-32.7,7.44-49.61,16.83,8.15,43.94,28,115.17,49.88,128.54,9.22,5.62,119.27-6.73,119.27-6.73s24.25-1.72,28.22-3.24c3-1.16,10.74-5.52,14.95-6.71,9.57-2.71,26.62,4.1,26.67,2.22C693.37,549.79,689,545.15,682.24,542.69Z"/><path class="cls-21" d="M504.52,371.14c-.9-14.14-6.25-27.79-21.3-32.18-9.32-2.73-19.78-.12-27.23,6-8.87,7.25-11.34,18.86-11.3,29.85.09,25,1.79,50.84,6.35,75.42,16.91-9.39,36.65-15,56.11-17.66C507.14,432.38,505.71,389.83,504.52,371.14Z"/><path class="cls-7" d="M215.61,397.82,71,370.9a5.35,5.35,0,0,1-4.28-6.23l18.11-97.25a5.35,5.35,0,0,1,6.24-4.28l144.56,26.92a5.34,5.34,0,0,1,4.28,6.23l-18.11,97.26A5.34,5.34,0,0,1,215.61,397.82Z"/><path class="cls-7" d="M146.79,286.64l-44-8.19a5.34,5.34,0,0,1-4.28-6.24l2.75-14.79a5.35,5.35,0,0,1,6.24-4.28l44,8.19a5.35,5.35,0,0,1,4.27,6.24L153,282.37A5.34,5.34,0,0,1,146.79,286.64Z"/><path class="cls-11" d="M222.19,394.1a5.34,5.34,0,0,1-6.13,3.81l-145.5-27.1a5.34,5.34,0,0,1-4.35-5.72l7.61-87.18a5.34,5.34,0,0,1,2.09-3.79,5.4,5.4,0,0,1,4.22-1l161.65,30.1a5.35,5.35,0,0,1,4.16,6.71Z"/><polygon class="cls-2" points="885.26 75.57 860.5 82.33 855.17 52.33 863.27 50.89 867.03 72.02 883.09 67.64 885.26 75.57"/><path class="cls-1" d="M402.52,99.08,247.16,154.5a9.64,9.64,0,0,1-12.3-5.83L206.19,68.28A9.62,9.62,0,0,1,212,56L367.37.56a9.65,9.65,0,0,1,12.31,5.83l28.67,80.39A9.62,9.62,0,0,1,402.52,99.08Z"/><path class="cls-22" d="M299.55,78.42a30.79,30.79,0,1,1-39.34-18.65A30.79,30.79,0,0,1,299.55,78.42Z"/><path class="cls-2" d="M275,74.11a9.08,9.08,0,1,1-11.6-5.5A9.07,9.07,0,0,1,275,74.11Z"/><path class="cls-2" d="M270,90.69h7.5a10.76,10.76,0,0,1,10.76,10.76v3.26a0,0,0,0,1,0,0h-29a0,0,0,0,1,0,0v-3.26A10.76,10.76,0,0,1,270,90.69Z" transform="translate(-16.91 97.65) rotate(-19.63)"/><path class="cls-22" d="M303.38,61.61A3.92,3.92,0,0,1,302.06,54L370,29.76a3.93,3.93,0,0,1,2.64,7.4L304.69,61.39A3.88,3.88,0,0,1,303.38,61.61Z"/><path class="cls-22" d="M321.71,78.54a3.92,3.92,0,0,1-1.32-7.62l53-18.92a3.93,3.93,0,0,1,4.87,5.38,3.87,3.87,0,0,1-2.23,2L323,78.31A3.75,3.75,0,0,1,321.71,78.54Z"/><path class="cls-6" d="M643.9,705.41H268.78a21.09,21.09,0,0,0-21.09,21.09v17.74a21.09,21.09,0,0,0,21.09,21.09H643.9l-.2-.2A43,43,0,0,1,643.9,705.41Z"/><path class="cls-11" d="M637.26,714.28H436.73a21.09,21.09,0,0,0-21.09,21.09h0a21.09,21.09,0,0,0,21.09,21.09H637.26A43,43,0,0,1,637.26,714.28Z"/><path class="cls-11" d="M950.91,707.13l-28.43-71.34a7,7,0,0,1,3.91-9.09l102.32-40.78a7,7,0,0,1,9.08,3.91l28.44,71.34a7,7,0,0,1-3.91,9.09L960,711A7,7,0,0,1,950.91,707.13Z"/><path class="cls-6" d="M1047.44,665.88l-25.56-64.1a2,2,0,0,1,1.12-2.61h0a2,2,0,0,1,2.61,1.12l25.55,64.11A2,2,0,0,1,1050,667h0A2,2,0,0,1,1047.44,665.88Z"/><path class="cls-6" d="M1035.26,657.44l-21-52.63a2,2,0,0,1,1.12-2.61h0a2,2,0,0,1,2.61,1.12L1039,656a2,2,0,0,1-1.12,2.61h0A2,2,0,0,1,1035.26,657.44Z"/><path class="cls-6" d="M1032.23,671.94l-25.55-64.1a2,2,0,0,1,1.12-2.61h0a2,2,0,0,1,2.61,1.12l25.55,64.1a2,2,0,0,1-1.12,2.61h0A2,2,0,0,1,1032.23,671.94Z"/><path class="cls-6" d="M1018.8,660.34l-19.72-49.48a2,2,0,0,1,1.12-2.6h0a2,2,0,0,1,2.61,1.12l19.72,49.48a2,2,0,0,1-1.12,2.6h0A2,2,0,0,1,1018.8,660.34Z"/><path class="cls-5" d="M1046.75,594.94l-.52-1.29a.89.89,0,0,0-1.15-.54l-9.71,3.87a.91.91,0,0,0-.47,1.19l.52,1.29a.9.9,0,0,0,1.15.53l9.71-3.87A.89.89,0,0,0,1046.75,594.94Z"/><path class="cls-5" d="M1049,600.46l-.52-1.29a.91.91,0,0,0-1.15-.54l-9.71,3.87a.91.91,0,0,0-.47,1.19l.52,1.29a.9.9,0,0,0,1.15.53l9.71-3.87A.89.89,0,0,0,1049,600.46Z"/><path class="cls-5" d="M1051.15,606l-.52-1.29a.91.91,0,0,0-1.15-.54l-9.71,3.88a.89.89,0,0,0-.46,1.18l.51,1.29a.91.91,0,0,0,1.15.54l9.71-3.87A.91.91,0,0,0,1051.15,606Z"/><path class="cls-5" d="M1053.35,611.5l-.51-1.29a.91.91,0,0,0-1.16-.53l-9.71,3.87a.89.89,0,0,0-.46,1.18L1042,616a.9.9,0,0,0,1.15.54l9.71-3.87A.91.91,0,0,0,1053.35,611.5Z"/><path class="cls-5" d="M1055.55,617l-.51-1.29a.9.9,0,0,0-1.16-.54l-9.71,3.87a.9.9,0,0,0-.46,1.18l.51,1.29a.9.9,0,0,0,1.15.54l9.71-3.87A.9.9,0,0,0,1055.55,617Z"/><path class="cls-5" d="M1057.75,622.55l-.51-1.29a.9.9,0,0,0-1.16-.54l-9.71,3.87a.9.9,0,0,0-.46,1.18l.51,1.29a.9.9,0,0,0,1.15.54l9.72-3.87A.9.9,0,0,0,1057.75,622.55Z"/><path class="cls-5" d="M1060,628.07l-.51-1.29a.9.9,0,0,0-1.15-.54l-9.72,3.87a.9.9,0,0,0-.46,1.18l.51,1.29a.9.9,0,0,0,1.15.54l9.72-3.87A.9.9,0,0,0,1060,628.07Z"/><path class="cls-5" d="M1062.15,633.59l-.51-1.29a.9.9,0,0,0-1.15-.54l-9.72,3.87a.9.9,0,0,0-.46,1.18l.51,1.3a.91.91,0,0,0,1.16.53l9.71-3.87A.9.9,0,0,0,1062.15,633.59Z"/><path class="cls-5" d="M1064.35,639.11l-.51-1.29a.9.9,0,0,0-1.15-.54l-9.71,3.87a.91.91,0,0,0-.47,1.19l.51,1.29a.92.92,0,0,0,1.16.54l9.71-3.88A.89.89,0,0,0,1064.35,639.11Z"/><path class="cls-5" d="M1066.55,644.63l-.51-1.29a.91.91,0,0,0-1.15-.54l-9.71,3.88a.89.89,0,0,0-.47,1.18l.51,1.29a.92.92,0,0,0,1.16.54l9.71-3.87A.91.91,0,0,0,1066.55,644.63Z"/><path class="cls-5" d="M1068.75,650.15l-.51-1.29a.9.9,0,0,0-1.15-.53l-9.71,3.87a.89.89,0,0,0-.47,1.18l.51,1.29a.9.9,0,0,0,1.16.54l9.71-3.87A.9.9,0,0,0,1068.75,650.15Z"/><path class="cls-5" d="M1071,655.68l-.52-1.3a.9.9,0,0,0-1.15-.53l-9.71,3.87a.9.9,0,0,0-.47,1.18l.52,1.29a.89.89,0,0,0,1.15.54l9.71-3.87A.9.9,0,0,0,1071,655.68Z"/><path class="cls-9" d="M1097.78,650l-40.61,57.83a1.65,1.65,0,0,0-.21.42L1052.83,721a1.59,1.59,0,0,0,2.47,1.76l10.86-8.19a1.5,1.5,0,0,0,.35-.36l40.71-58a1.6,1.6,0,0,0-.44-2.26l-6.84-4.36A1.6,1.6,0,0,0,1097.78,650Z"/><path class="cls-7" d="M1066.46,714.22l-.1.15-10.48,7.9-2.86-1.91,3.92-12.05C1060,710,1063.69,711.72,1066.46,714.22Z"/><path class="cls-1" d="M686.38,24c5.84,4.66,16,19.67,29,30.21C723,60.37,728.8,58.8,738.49,60c46,5.56,33.51,15,39,15.87-1.57,3.61-15.89,34.05-18.56,40.2-2.47,5.68-6.74,8.21-12.92,7.36-9.5-1.31-19.1-2.29-28.45-4.32-24-5.2-37.34-17.2-54.53-31.77-4.56-3.87-5.69-8.69-3.32-14.15C670.73,47.73,685.18,26.33,686.38,24Z"/><path class="cls-22" d="M782.49,112.46c-.21,10,.56,12-3.74,10.51a59.79,59.79,0,0,1-7.54-3.37c-1.73-.89-1.8-2.06-.4-3.47,2.05-2,4.14-4,6.18-6a8.88,8.88,0,0,1,3.89-10.65c.75-.44.21.5,6.61-14.24-21.17-2.61-36.11-4.36-61.93-7.53a34.76,34.76,0,0,1-18.39-8q-27.66-23.14-55.32-46.31c-2.5-2.1-2.82-5.17-.83-7.53,1.52-1.81,3.53-1.9,5.69-1.63,5.9.74,63.68,7.92,69.55,8.61a38,38,0,0,1,20.46,8.79Q773.9,54.36,801.15,77c2.49,2.07,3.17,4,2.29,6.29-1,2.54-3.06,3.75-6.23,3.07-2.29-.5-3.3.2-4.09,2.32-3.56,9.58-6,11.7-5.18,15.2C788.6,106.61,785.39,111.29,782.49,112.46Z"/><path class="cls-6" d="M878.36,792.91l10.53,10a279.9,279.9,0,0,1,59.92,83l1.61,3.42s27.58,2.43,31.43-22.5h0A417.1,417.1,0,0,1,921.3,778l-5-11.66Z"/><path class="cls-12" d="M916.3,766.28c1.35,1.94-6,9.44-16.53,16.75s-20.11,11.75-21.47,9.81,6.09-9.53,16.57-16.84S914.94,764.34,916.3,766.28Z"/><path class="cls-5" d="M916.34,766.35l0,0s-21,17.76-29.65,19.58l2.67,3.64A110,110,0,0,0,899.77,783C910.13,775.81,917.48,768.4,916.34,766.35Z"/><path class="cls-13" d="M944.38,817.94c0,3.07-1.13,16.29-23.13,21.81,1.45,2,2.87,4,4.27,6,13.92-4.11,20.18-11.26,23-16.7.44-.86,1-2,1.34-2.91Q947.07,822.05,944.38,817.94Z"/><polygon class="cls-13" points="923.23 835.84 890.86 834.68 898.53 841.19 893.94 849.51 924.58 841.7 923.23 835.84"/><polygon class="cls-13" points="926.18 843.37 914.68 863.4 922.76 860.32 925.88 866.68 931.29 845.61 926.18 843.37"/><path class="cls-19" d="M930.57,848.8a10.64,10.64,0,1,1,9.54-11.34A10.48,10.48,0,0,1,930.57,848.8Z"/><path class="cls-1" d="M999.28,394.2l-68.17-60.83c-4.43-4-2.58-12.09,3.53-15.55L989.05,287c3.48-2,7.4-1.79,9.93.47l68.17,60.83c4.43,3.95,2.58,12.09-3.53,15.55l-54.4,30.8C1005.73,396.64,1001.81,396.45,999.28,394.2Z"/><path class="cls-2" d="M996.05,345.81l-5.68-46.74a4.19,4.19,0,0,1,2.91-4.27A2.7,2.7,0,0,1,997,297l5.23,43,51.7,12.5c1.68.4,2.46,2.22,1.73,4.06a4,4,0,0,1-4.38,2.58Z"/><polygon class="cls-2" points="105.85 131.73 112.9 145.67 128.82 145.15 135.61 161.34 152.4 155.56 160.89 173.52 177 170.11 187.99 186.06 181.96 190.22 173.74 178.3 156.73 181.9 148.57 164.63 131.5 170.5 124.01 152.64 108.46 153.15 101.93 140.23 91.79 142.69 90.06 135.57 105.85 131.73"/><polygon class="cls-1" points="958.4 488.32 972.87 494.2 984.53 483.35 1000.29 491.09 1009.15 475.71 1027.35 483.68 1037.26 470.52 1056.02 475.32 1054.2 482.42 1040.17 478.83 1029.72 492.72 1012.22 485.06 1003.21 500.7 985.83 492.16 974.44 502.75 961.03 497.3 955 505.82 949.01 501.59 958.4 488.32"/><rect class="cls-2" x="159.91" y="452.17" width="114.65" height="88.79" rx="15.14" transform="translate(-228.49 188.19) rotate(-31.69)"/><path class="cls-14" d="M206.93,480.12c.52-2.51.64-4.94,1.41-7.23,3.83-11.33,16.39-15,26.29-7.7,5.74,4.23,8.18,10.13,8.57,17,.5,8.77-1.53,17.12-4.44,25.3a125.4,125.4,0,0,1-4.93,11.94,3.3,3.3,0,0,1-3.39,2.14c-11.56-.2-22.89-1.61-33.64-6.2-5.42-2.31-10.09-5.55-13.11-10.76-4.17-7.15-3.31-16.37,2-21.89,4.81-5,11.94-6.34,19-3.57C205.38,479.45,206.07,479.76,206.93,480.12Z"/><rect class="cls-2" x="667.74" y="202.61" width="91.92" height="71.19" rx="12.14" transform="translate(82.95 -172) rotate(14.58)"/><path class="cls-23" d="M735.18,243.28l.16-.64a3.24,3.24,0,0,0-2.32-3.95l-5-1.31a3.55,3.55,0,0,0-.64-.1c-2.79-.65-5.61-1.26-6.56-1.58a2.15,2.15,0,0,1-1.56-2.78c.14-.55,2.88-6.63,3.39-8.7a18.23,18.23,0,0,0-.23-7.79c-.62-1.92-1.69-2.31-3.54-2.46s-2.42,2.36-3,4.71a22.74,22.74,0,0,1-2.67,5.71c-.81,1.47-.52.72-5.48,6.08-4.47,4.82-6.43,4.93-6.77,4.91a.29.29,0,0,1-.1,0,.34.34,0,0,0-.44.23c-.7,2.74-5.14,20.12-4.74,20.26a2.12,2.12,0,0,1,1.13.79l0,0c3.77,3.33,10.72,5.48,17.83,7,6.32,1.35,9,1.23,10.89,0a3.24,3.24,0,0,0,1.72-2.09l.17-.63a3.29,3.29,0,0,0-.37-2.49l.25.06a3.25,3.25,0,0,0,3.95-2.32l.17-.64A3.25,3.25,0,0,0,730,252a3.24,3.24,0,0,0,3.47-2.4l.17-.64a3.26,3.26,0,0,0-1-3.29A3.24,3.24,0,0,0,735.18,243.28Z"/><rect class="cls-14" x="689.45" y="230.36" width="11.18" height="28.26" rx="2.26" transform="translate(83.93 -167.1) rotate(14.58)"/></g></g></svg>